ISO-10303-21;
HEADER;
/* Generated by software containing ST-Developer
 * from STEP Tools, Inc. (www.steptools.com) 
 */
/* OPTION: using custom schema-name function */

FILE_DESCRIPTION(
/* description */ (''),
/* implementation_level */ '2;1');

FILE_NAME(
/* name */ 'Rod',
/* time_stamp */ '2026-07-16T09:16:16-04:00',
/* author */ (''),
/* organization */ (''),
/* preprocessor_version */ 'ST-DEVELOPER v19.2',
/* originating_system */ 'Rhino 8.32',
/* authorisation */ '');

FILE_SCHEMA (('CONFIG_CONTROL_DESIGN'));
ENDSEC;

DATA;
#10=SHAPE_REPRESENTATION_RELATIONSHIP('','',#313,#12);
#11=MANIFOLD_SOLID_BREP('brep_1',#13);
#12=ADVANCED_BREP_SHAPE_REPRESENTATION('brep_rep_0',(#11,#335),#312);
#13=CLOSED_SHELL('',(#14,#15,#16,#17,#18,#19,#20,#21,#22,#23,#24,#25,#26,
#27));
#14=ADVANCED_FACE('',(#28),#222,.T.);
#15=ADVANCED_FACE('',(#29),#216,.T.);
#16=ADVANCED_FACE('',(#30),#218,.T.);
#17=ADVANCED_FACE('',(#31),#219,.T.);
#18=ADVANCED_FACE('',(#32),#220,.T.);
#19=ADVANCED_FACE('',(#33),#221,.T.);
#20=ADVANCED_FACE('',(#34),#223,.T.);
#21=ADVANCED_FACE('',(#35),#216,.T.);
#22=ADVANCED_FACE('',(#36),#212,.T.);
#23=ADVANCED_FACE('',(#37),#214,.T.);
#24=ADVANCED_FACE('',(#38),#217,.T.);
#25=ADVANCED_FACE('',(#39),#217,.T.);
#26=ADVANCED_FACE('',(#40),#213,.T.);
#27=ADVANCED_FACE('',(#41),#215,.T.);
#28=FACE_OUTER_BOUND('',#42,.T.);
#29=FACE_OUTER_BOUND('',#43,.T.);
#30=FACE_OUTER_BOUND('',#44,.T.);
#31=FACE_OUTER_BOUND('',#45,.T.);
#32=FACE_OUTER_BOUND('',#46,.T.);
#33=FACE_OUTER_BOUND('',#47,.T.);
#34=FACE_OUTER_BOUND('',#48,.T.);
#35=FACE_OUTER_BOUND('',#49,.T.);
#36=FACE_OUTER_BOUND('',#50,.T.);
#37=FACE_OUTER_BOUND('',#51,.T.);
#38=FACE_OUTER_BOUND('',#52,.T.);
#39=FACE_OUTER_BOUND('',#53,.T.);
#40=FACE_OUTER_BOUND('',#54,.T.);
#41=FACE_OUTER_BOUND('',#55,.T.);
#42=EDGE_LOOP('',(#56,#57));
#43=EDGE_LOOP('',(#58,#59,#60,#61));
#44=EDGE_LOOP('',(#62,#63,#64,#65,#66,#67));
#45=EDGE_LOOP('',(#68,#69,#70,#71));
#46=EDGE_LOOP('',(#72,#73,#74,#75,#76,#77,#78,#79,#80,#81));
#47=EDGE_LOOP('',(#82,#83,#84,#85));
#48=EDGE_LOOP('',(#86,#87));
#49=EDGE_LOOP('',(#88,#89,#90,#91));
#50=EDGE_LOOP('',(#92,#93,#94,#95,#96));
#51=EDGE_LOOP('',(#97,#98,#99,#100,#101));
#52=EDGE_LOOP('',(#102,#103,#104,#105));
#53=EDGE_LOOP('',(#106,#107,#108,#109));
#54=EDGE_LOOP('',(#110,#111,#112,#113,#114));
#55=EDGE_LOOP('',(#115,#116,#117,#118,#119));
#56=ORIENTED_EDGE('',*,*,#120,.T.);
#57=ORIENTED_EDGE('',*,*,#150,.T.);
#58=ORIENTED_EDGE('',*,*,#136,.T.);
#59=ORIENTED_EDGE('',*,*,#139,.T.);
#60=ORIENTED_EDGE('',*,*,#125,.T.);
#61=ORIENTED_EDGE('',*,*,#122,.T.);
#62=ORIENTED_EDGE('',*,*,#130,.T.);
#63=ORIENTED_EDGE('',*,*,#138,.F.);
#64=ORIENTED_EDGE('',*,*,#122,.F.);
#65=ORIENTED_EDGE('',*,*,#132,.F.);
#66=ORIENTED_EDGE('',*,*,#126,.T.);
#67=ORIENTED_EDGE('',*,*,#143,.T.);
#68=ORIENTED_EDGE('',*,*,#131,.T.);
#69=ORIENTED_EDGE('',*,*,#123,.F.);
#70=ORIENTED_EDGE('',*,*,#130,.F.);
#71=ORIENTED_EDGE('',*,*,#127,.T.);
#72=ORIENTED_EDGE('',*,*,#133,.T.);
#73=ORIENTED_EDGE('',*,*,#139,.F.);
#74=ORIENTED_EDGE('',*,*,#148,.F.);
#75=ORIENTED_EDGE('',*,*,#140,.F.);
#76=ORIENTED_EDGE('',*,*,#124,.F.);
#77=ORIENTED_EDGE('',*,*,#131,.F.);
#78=ORIENTED_EDGE('',*,*,#128,.T.);
#79=ORIENTED_EDGE('',*,*,#145,.T.);
#80=ORIENTED_EDGE('',*,*,#151,.T.);
#81=ORIENTED_EDGE('',*,*,#144,.T.);
#82=ORIENTED_EDGE('',*,*,#132,.T.);
#83=ORIENTED_EDGE('',*,*,#125,.F.);
#84=ORIENTED_EDGE('',*,*,#133,.F.);
#85=ORIENTED_EDGE('',*,*,#129,.T.);
#86=ORIENTED_EDGE('',*,*,#147,.F.);
#87=ORIENTED_EDGE('',*,*,#134,.F.);
#88=ORIENTED_EDGE('',*,*,#137,.T.);
#89=ORIENTED_EDGE('',*,*,#138,.T.);
#90=ORIENTED_EDGE('',*,*,#123,.T.);
#91=ORIENTED_EDGE('',*,*,#124,.T.);
#92=ORIENTED_EDGE('',*,*,#146,.T.);
#93=ORIENTED_EDGE('',*,*,#148,.T.);
#94=ORIENTED_EDGE('',*,*,#136,.F.);
#95=ORIENTED_EDGE('',*,*,#135,.F.);
#96=ORIENTED_EDGE('',*,*,#134,.T.);
#97=ORIENTED_EDGE('',*,*,#149,.T.);
#98=ORIENTED_EDGE('',*,*,#145,.F.);
#99=ORIENTED_EDGE('',*,*,#142,.T.);
#100=ORIENTED_EDGE('',*,*,#121,.F.);
#101=ORIENTED_EDGE('',*,*,#150,.F.);
#102=ORIENTED_EDGE('',*,*,#126,.F.);
#103=ORIENTED_EDGE('',*,*,#129,.F.);
#104=ORIENTED_EDGE('',*,*,#144,.F.);
#105=ORIENTED_EDGE('',*,*,#141,.F.);
#106=ORIENTED_EDGE('',*,*,#128,.F.);
#107=ORIENTED_EDGE('',*,*,#127,.F.);
#108=ORIENTED_EDGE('',*,*,#143,.F.);
#109=ORIENTED_EDGE('',*,*,#142,.F.);
#110=ORIENTED_EDGE('',*,*,#147,.T.);
#111=ORIENTED_EDGE('',*,*,#135,.T.);
#112=ORIENTED_EDGE('',*,*,#137,.F.);
#113=ORIENTED_EDGE('',*,*,#140,.T.);
#114=ORIENTED_EDGE('',*,*,#146,.F.);
#115=ORIENTED_EDGE('',*,*,#120,.F.);
#116=ORIENTED_EDGE('',*,*,#121,.T.);
#117=ORIENTED_EDGE('',*,*,#141,.T.);
#118=ORIENTED_EDGE('',*,*,#151,.F.);
#119=ORIENTED_EDGE('',*,*,#149,.F.);
#120=EDGE_CURVE('',#192,#210,#176,.T.);
#121=EDGE_CURVE('',#192,#205,#172,.T.);
#122=EDGE_CURVE('',#196,#202,#152,.T.);
#123=EDGE_CURVE('',#193,#194,#153,.T.);
#124=EDGE_CURVE('',#194,#204,#154,.T.);
#125=EDGE_CURVE('',#195,#196,#155,.T.);
#126=EDGE_CURVE('',#200,#205,#156,.T.);
#127=EDGE_CURVE('',#197,#198,#157,.T.);
#128=EDGE_CURVE('',#198,#207,#158,.T.);
#129=EDGE_CURVE('',#199,#200,#159,.T.);
#130=EDGE_CURVE('',#197,#193,#160,.T.);
#131=EDGE_CURVE('',#198,#194,#161,.T.);
#132=EDGE_CURVE('',#200,#196,#162,.T.);
#133=EDGE_CURVE('',#199,#195,#163,.T.);
#134=EDGE_CURVE('',#201,#208,#177,.T.);
#135=EDGE_CURVE('',#201,#202,#173,.T.);
#136=EDGE_CURVE('',#202,#203,#178,.T.);
#137=EDGE_CURVE('',#204,#202,#179,.T.);
#138=EDGE_CURVE('',#202,#193,#164,.T.);
#139=EDGE_CURVE('',#203,#195,#165,.T.);
#140=EDGE_CURVE('',#204,#209,#166,.T.);
#141=EDGE_CURVE('',#205,#206,#180,.T.);
#142=EDGE_CURVE('',#207,#205,#181,.T.);
#143=EDGE_CURVE('',#205,#197,#167,.T.);
#144=EDGE_CURVE('',#206,#199,#168,.T.);
#145=EDGE_CURVE('',#207,#211,#169,.T.);
#146=EDGE_CURVE('',#208,#209,#174,.T.);
#147=EDGE_CURVE('',#208,#201,#182,.T.);
#148=EDGE_CURVE('',#209,#203,#170,.T.);
#149=EDGE_CURVE('',#210,#211,#175,.T.);
#150=EDGE_CURVE('',#210,#192,#183,.T.);
#151=EDGE_CURVE('',#211,#206,#171,.T.);
#152=B_SPLINE_CURVE_WITH_KNOTS('',1,(#406,#407),.UNSPECIFIED.,.F.,.F.,(2,
2),(-0.243348094320455,-0.12167404716023),.UNSPECIFIED.);
#153=B_SPLINE_CURVE_WITH_KNOTS('',1,(#408,#409),.UNSPECIFIED.,.F.,.F.,(2,
2),(0.000313285489552367,0.239147976897191),.UNSPECIFIED.);
#154=B_SPLINE_CURVE_WITH_KNOTS('',1,(#410,#411),.UNSPECIFIED.,.F.,.F.,(2,
2),(0.239999999999998,0.353569652469902),.UNSPECIFIED.);
#155=B_SPLINE_CURVE_WITH_KNOTS('',1,(#412,#413),.UNSPECIFIED.,.F.,.F.,(2,
2),(-0.238834691407639,0.),.UNSPECIFIED.);
#156=B_SPLINE_CURVE_WITH_KNOTS('',1,(#414,#415),.UNSPECIFIED.,.F.,.F.,(2,
2),(-0.243348094320455,-0.121674047160236),.UNSPECIFIED.);
#157=B_SPLINE_CURVE_WITH_KNOTS('',1,(#416,#417),.UNSPECIFIED.,.F.,.F.,(2,
2),(0.000313285489552367,0.239147976897191),.UNSPECIFIED.);
#158=B_SPLINE_CURVE_WITH_KNOTS('',1,(#418,#419),.UNSPECIFIED.,.F.,.F.,(2,
2),(0.239999999999998,0.353569652469863),.UNSPECIFIED.);
#159=B_SPLINE_CURVE_WITH_KNOTS('',1,(#420,#421),.UNSPECIFIED.,.F.,.F.,(2,
2),(-0.238834691407639,0.),.UNSPECIFIED.);
#160=B_SPLINE_CURVE_WITH_KNOTS('',1,(#422,#423),.UNSPECIFIED.,.F.,.F.,(2,
2),(0.,2.33020705706899),.UNSPECIFIED.);
#161=B_SPLINE_CURVE_WITH_KNOTS('',1,(#424,#425),.UNSPECIFIED.,.F.,.F.,(2,
2),(0.,2.33020705706899),.UNSPECIFIED.);
#162=B_SPLINE_CURVE_WITH_KNOTS('',1,(#426,#427),.UNSPECIFIED.,.F.,.F.,(2,
2),(0.,2.330207057069),.UNSPECIFIED.);
#163=B_SPLINE_CURVE_WITH_KNOTS('',1,(#428,#429),.UNSPECIFIED.,.F.,.F.,(2,
2),(0.,2.330207057069),.UNSPECIFIED.);
#164=B_SPLINE_CURVE_WITH_KNOTS('',1,(#441,#442),.UNSPECIFIED.,.F.,.F.,(2,
2),(-0.12167404716023,0.),.UNSPECIFIED.);
#165=B_SPLINE_CURVE_WITH_KNOTS('',1,(#443,#444),.UNSPECIFIED.,.F.,.F.,(2,
2),(0.370965569335572,0.484535221805313),.UNSPECIFIED.);
#166=B_SPLINE_CURVE_WITH_KNOTS('',1,(#445,#446),.UNSPECIFIED.,.F.,.F.,(2,
2),(0.353569652469902,0.36226761090277),.UNSPECIFIED.);
#167=B_SPLINE_CURVE_WITH_KNOTS('',1,(#453,#454),.UNSPECIFIED.,.F.,.F.,(2,
2),(-0.121674047160236,0.),.UNSPECIFIED.);
#168=B_SPLINE_CURVE_WITH_KNOTS('',1,(#455,#456),.UNSPECIFIED.,.F.,.F.,(2,
2),(0.370965569335619,0.484535221805313),.UNSPECIFIED.);
#169=B_SPLINE_CURVE_WITH_KNOTS('',1,(#457,#458),.UNSPECIFIED.,.F.,.F.,(2,
2),(0.353569652469863,0.362267610902741),.UNSPECIFIED.);
#170=B_SPLINE_CURVE_WITH_KNOTS('',1,(#464,#465),.UNSPECIFIED.,.F.,.F.,(2,
2),(0.36226761090277,0.370965569335572),.UNSPECIFIED.);
#171=B_SPLINE_CURVE_WITH_KNOTS('',1,(#471,#472),.UNSPECIFIED.,.F.,.F.,(2,
2),(0.362267610902741,0.370965569335619),.UNSPECIFIED.);
#172=(
BOUNDED_CURVE()
B_SPLINE_CURVE(1,(#404,#405),.UNSPECIFIED.,.F.,.F.)
B_SPLINE_CURVE_WITH_KNOTS((2,2),(-0.0427767644599886,0.539281493202104),
 .UNSPECIFIED.)
CURVE()
GEOMETRIC_REPRESENTATION_ITEM()
RATIONAL_B_SPLINE_CURVE((1.,1.))
REPRESENTATION_ITEM('')
);
#173=(
BOUNDED_CURVE()
B_SPLINE_CURVE(1,(#433,#434),.UNSPECIFIED.,.F.,.F.)
B_SPLINE_CURVE_WITH_KNOTS((2,2),(-0.140128523833656,0.255351828088591),
 .UNSPECIFIED.)
CURVE()
GEOMETRIC_REPRESENTATION_ITEM()
RATIONAL_B_SPLINE_CURVE((1.,1.))
REPRESENTATION_ITEM('')
);
#174=(
BOUNDED_CURVE()
B_SPLINE_CURVE(1,(#459,#460),.UNSPECIFIED.,.F.,.F.)
B_SPLINE_CURVE_WITH_KNOTS((2,2),(0.00305409837580392,0.398534450298045),
 .UNSPECIFIED.)
CURVE()
GEOMETRIC_REPRESENTATION_ITEM()
RATIONAL_B_SPLINE_CURVE((1.,1.))
REPRESENTATION_ITEM('')
);
#175=(
BOUNDED_CURVE()
B_SPLINE_CURVE(1,(#466,#467),.UNSPECIFIED.,.F.,.F.)
B_SPLINE_CURVE_WITH_KNOTS((2,2),(-0.0427767644599886,0.5392814932021),
 .UNSPECIFIED.)
CURVE()
GEOMETRIC_REPRESENTATION_ITEM()
RATIONAL_B_SPLINE_CURVE((1.,1.))
REPRESENTATION_ITEM('')
);
#176=TRIMMED_CURVE($,#184,(#402),(#403),.T.,.CARTESIAN.);
#177=TRIMMED_CURVE($,#185,(#431),(#432),.T.,.CARTESIAN.);
#178=TRIMMED_CURVE($,#186,(#436),(#437),.T.,.CARTESIAN.);
#179=TRIMMED_CURVE($,#187,(#439),(#440),.T.,.CARTESIAN.);
#180=TRIMMED_CURVE($,#188,(#448),(#449),.T.,.CARTESIAN.);
#181=TRIMMED_CURVE($,#189,(#451),(#452),.T.,.CARTESIAN.);
#182=TRIMMED_CURVE($,#190,(#462),(#463),.T.,.CARTESIAN.);
#183=TRIMMED_CURVE($,#191,(#469),(#470),.T.,.CARTESIAN.);
#184=CIRCLE('',#327,0.119730631193358);
#185=CIRCLE('',#328,0.119730631193358);
#186=CIRCLE('',#329,0.11965220728669);
#187=CIRCLE('',#330,0.11965220728669);
#188=CIRCLE('',#331,0.119652207286691);
#189=CIRCLE('',#332,0.119652207286691);
#190=CIRCLE('',#333,0.119730631193358);
#191=CIRCLE('',#334,0.119730631193358);
#192=VERTEX_POINT('',#381);
#193=VERTEX_POINT('',#382);
#194=VERTEX_POINT('',#383);
#195=VERTEX_POINT('',#384);
#196=VERTEX_POINT('',#385);
#197=VERTEX_POINT('',#386);
#198=VERTEX_POINT('',#387);
#199=VERTEX_POINT('',#388);
#200=VERTEX_POINT('',#389);
#201=VERTEX_POINT('',#390);
#202=VERTEX_POINT('',#391);
#203=VERTEX_POINT('',#392);
#204=VERTEX_POINT('',#393);
#205=VERTEX_POINT('',#394);
#206=VERTEX_POINT('',#395);
#207=VERTEX_POINT('',#396);
#208=VERTEX_POINT('',#397);
#209=VERTEX_POINT('',#398);
#210=VERTEX_POINT('',#399);
#211=VERTEX_POINT('',#400);
#212=CYLINDRICAL_SURFACE('',#321,0.119730631193358);
#213=CYLINDRICAL_SURFACE('',#322,0.119730631193358);
#214=CYLINDRICAL_SURFACE('',#323,0.119730631193358);
#215=CYLINDRICAL_SURFACE('',#324,0.119730631193358);
#216=PLANE('',#315);
#217=PLANE('',#316);
#218=PLANE('',#317);
#219=PLANE('',#318);
#220=PLANE('',#319);
#221=PLANE('',#320);
#222=PLANE('',#325);
#223=PLANE('',#326);
#224=SHAPE_DEFINITION_REPRESENTATION(#225,#313);
#225=PRODUCT_DEFINITION_SHAPE($,$,#227);
#226=PRODUCT_DEFINITION_CONTEXT('3D Mechanical Parts',#299,'design');
#227=PRODUCT_DEFINITION('A','First version',#269,#226);
#228=DATE_TIME_ROLE('classification_date');
#229=DATE_TIME_ROLE('creation_date');
#230=APPLIED_DATE_AND_TIME_ASSIGNMENT(#254,#228,(#233));
#231=APPLIED_DATE_AND_TIME_ASSIGNMENT(#256,#229,(#227));
#232=SECURITY_CLASSIFICATION_LEVEL('unclassified');
#233=SECURITY_CLASSIFICATION('A','Security for version',#232);
#234=APPLIED_SECURITY_CLASSIFICATION_ASSIGNMENT(#233,(#269));
#235=APPROVAL_ROLE('Version approval');
#236=APPROVAL_ROLE('Version Security approval');
#237=APPROVAL_ROLE('Definition approval');
#238=APPROVAL_PERSON_ORGANIZATION(#287,#263,#235);
#239=APPROVAL_PERSON_ORGANIZATION(#288,#264,#236);
#240=APPROVAL_PERSON_ORGANIZATION(#291,#265,#237);
#241=COORDINATED_UNIVERSAL_TIME_OFFSET(5,0,.BEHIND.);
#242=LOCAL_TIME(0,0,0.,#241);
#243=LOCAL_TIME(0,0,0.,#241);
#244=LOCAL_TIME(0,0,0.,#241);
#245=LOCAL_TIME(0,0,0.,#241);
#246=LOCAL_TIME(0,0,0.,#241);
#247=CALENDAR_DATE(1999,1,1);
#248=CALENDAR_DATE(1999,1,1);
#249=CALENDAR_DATE(1999,1,1);
#250=CALENDAR_DATE(1999,1,1);
#251=CALENDAR_DATE(1999,1,1);
#252=DATE_AND_TIME(#247,#242);
#253=DATE_AND_TIME(#248,#243);
#254=DATE_AND_TIME(#249,#244);
#255=DATE_AND_TIME(#250,#245);
#256=DATE_AND_TIME(#251,#246);
#257=APPROVAL_DATE_TIME(#252,#263);
#258=APPROVAL_DATE_TIME(#253,#264);
#259=APPROVAL_DATE_TIME(#255,#265);
#260=APPROVAL_STATUS('not_yet_approved');
#261=APPROVAL_STATUS('not_yet_approved');
#262=APPROVAL_STATUS('approved');
#263=APPROVAL(#260,'Version approval');
#264=APPROVAL(#261,'Version Security approval');
#265=APPROVAL(#262,'Definition approval');
#266=APPLIED_APPROVAL_ASSIGNMENT(#263,(#269));
#267=APPLIED_APPROVAL_ASSIGNMENT(#264,(#233));
#268=APPLIED_APPROVAL_ASSIGNMENT(#265,(#227));
#269=PRODUCT_DEFINITION_FORMATION_WITH_SPECIFIED_SOURCE('A',
'First version',#301,.MADE.);
#270=PERSON_AND_ORGANIZATION_ROLE('design_owner');
#271=PERSON_AND_ORGANIZATION_ROLE('creator');
#272=PERSON_AND_ORGANIZATION_ROLE('design_supplier');
#273=PERSON_AND_ORGANIZATION_ROLE('classification_officer');
#274=PERSON_AND_ORGANIZATION_ROLE('creator');
#275=ORGANIZATION('STI','lab','lab');
#276=ORGANIZATION('STI','unknown','unknown');
#277=ORGANIZATION('STI','unknown','unknown');
#278=ORGANIZATION('STI','unknown','unknown');
#279=ORGANIZATION('STI','unknown','unknown');
#280=ORGANIZATION('STI','unknown','unknown');
#281=ORGANIZATION('STI','unknown','unknown');
#282=PERSON('1','Box','vc60',$,$,$);
#283=PERSON('2','last','first',$,$,$);
#284=PERSON('3','President','Mr.',$,$,$);
#285=PERSON_AND_ORGANIZATION(#282,#275);
#286=PERSON_AND_ORGANIZATION(#283,#276);
#287=PERSON_AND_ORGANIZATION(#284,#277);
#288=PERSON_AND_ORGANIZATION(#284,#278);
#289=PERSON_AND_ORGANIZATION(#284,#279);
#290=PERSON_AND_ORGANIZATION(#283,#280);
#291=PERSON_AND_ORGANIZATION(#284,#281);
#292=APPLIED_PERSON_AND_ORGANIZATION_ASSIGNMENT(#285,#270,(#301));
#293=APPLIED_PERSON_AND_ORGANIZATION_ASSIGNMENT(#286,#271,(#269));
#294=APPLIED_PERSON_AND_ORGANIZATION_ASSIGNMENT(#286,#272,(#269));
#295=APPLIED_PERSON_AND_ORGANIZATION_ASSIGNMENT(#289,#273,(#233));
#296=APPLIED_PERSON_AND_ORGANIZATION_ASSIGNMENT(#290,#274,(#227));
#297=PRODUCT_RELATED_PRODUCT_CATEGORY('detail','detail',(#301));
#298=APPLICATION_PROTOCOL_DEFINITION('International Standard',
'config_control_design',1994,#299);
#299=APPLICATION_CONTEXT(
'configuration controlled 3d designs of mechanical parts and assemblie
s');
#300=PRODUCT_CONTEXT('3D Mechanical Parts',#299,'mechanical');
#301=PRODUCT('Document','Document','',(#300));
#302=(
LENGTH_UNIT()
NAMED_UNIT(*)
SI_UNIT(.CENTI.,.METRE.)
);
#303=LENGTH_MEASURE_WITH_UNIT(LENGTH_MEASURE(2.54),#302);
#304=(
CONVERSION_BASED_UNIT('INCH',#303)
LENGTH_UNIT()
NAMED_UNIT(#307)
);
#305=(
NAMED_UNIT(*)
PLANE_ANGLE_UNIT()
SI_UNIT($,.RADIAN.)
);
#306=DIMENSIONAL_EXPONENTS(0.,0.,0.,0.,0.,0.,0.);
#307=DIMENSIONAL_EXPONENTS(1.,0.,0.,0.,0.,0.,0.);
#308=PLANE_ANGLE_MEASURE_WITH_UNIT(PLANE_ANGLE_MEASURE(0.01745329252),#305);
#309=(
CONVERSION_BASED_UNIT('DEGREES',#308)
NAMED_UNIT(#306)
PLANE_ANGLE_UNIT()
);
#310=(
NAMED_UNIT(*)
SI_UNIT($,.STERADIAN.)
SOLID_ANGLE_UNIT()
);
#311=UNCERTAINTY_MEASURE_WITH_UNIT(LENGTH_MEASURE(0.001),#304,
'DISTANCE_ACCURACY_VALUE',
'Maximum model space distance between geometric entities at asserted c
onnectivities');
#312=(
GEOMETRIC_REPRESENTATION_CONTEXT(3)
GLOBAL_UNCERTAINTY_ASSIGNED_CONTEXT((#311))
GLOBAL_UNIT_ASSIGNED_CONTEXT((#310,#309,#304))
REPRESENTATION_CONTEXT('ID1','3D')
);
#313=SHAPE_REPRESENTATION('Document',(#314,#335),#312);
#314=AXIS2_PLACEMENT_3D($,#368,#336,#337);
#315=AXIS2_PLACEMENT_3D('',#369,#338,$);
#316=AXIS2_PLACEMENT_3D('',#370,#339,$);
#317=AXIS2_PLACEMENT_3D('',#371,#340,$);
#318=AXIS2_PLACEMENT_3D('',#372,#341,$);
#319=AXIS2_PLACEMENT_3D('',#373,#342,$);
#320=AXIS2_PLACEMENT_3D('',#374,#343,$);
#321=AXIS2_PLACEMENT_3D('',#375,#344,$);
#322=AXIS2_PLACEMENT_3D('',#376,#345,$);
#323=AXIS2_PLACEMENT_3D('',#377,#346,$);
#324=AXIS2_PLACEMENT_3D('',#378,#347,$);
#325=AXIS2_PLACEMENT_3D('',#379,#348,$);
#326=AXIS2_PLACEMENT_3D('',#380,#349,$);
#327=AXIS2_PLACEMENT_3D($,#401,#350,#351);
#328=AXIS2_PLACEMENT_3D($,#430,#352,#353);
#329=AXIS2_PLACEMENT_3D($,#435,#354,#355);
#330=AXIS2_PLACEMENT_3D($,#438,#356,#357);
#331=AXIS2_PLACEMENT_3D($,#447,#358,#359);
#332=AXIS2_PLACEMENT_3D($,#450,#360,#361);
#333=AXIS2_PLACEMENT_3D($,#461,#362,#363);
#334=AXIS2_PLACEMENT_3D($,#468,#364,#365);
#335=AXIS2_PLACEMENT_3D($,#473,#366,#367);
#336=DIRECTION('',(0.,0.,1.));
#337=DIRECTION('',(1.,0.,0.));
#338=DIRECTION('',(1.,0.,0.));
#339=DIRECTION('',(-1.,0.,0.));
#340=DIRECTION('',(0.,0.,1.));
#341=DIRECTION('',(0.,-1.,0.));
#342=DIRECTION('',(0.,0.,-1.));
#343=DIRECTION('',(0.,1.,0.));
#344=DIRECTION('',(-1.,-6.87859758012649E-30,1.48362772474785E-14));
#345=DIRECTION('',(-1.,-6.87859758012649E-30,1.48362772474785E-14));
#346=DIRECTION('',(-1.,1.48362772474785E-14,-2.96725544949569E-14));
#347=DIRECTION('',(-1.,-1.48362772474785E-14,-2.96725544949569E-14));
#348=DIRECTION('',(-1.,0.,0.));
#349=DIRECTION('',(1.,0.,0.));
#350=DIRECTION('',(-1.,-2.9672554494957E-14,-2.96725544949569E-14));
#351=DIRECTION('',(-2.9672554494957E-14,3.70906931186962E-15,1.));
#352=DIRECTION('',(-1.,0.,0.));
#353=DIRECTION('',(0.,1.85453465593481E-15,1.));
#354=DIRECTION('',(-1.,1.59303552173734E-14,-1.42884883358381E-14));
#355=DIRECTION('',(-2.96920028419376E-14,-4.73833739583161E-5,0.999999998877408));
#356=DIRECTION('',(-1.,-2.33578451344907E-14,-6.58675654357911E-15));
#357=DIRECTION('',(0.,-0.0722933289744059,-0.997383414031835));
#358=DIRECTION('',(-1.,-7.42748991711749E-15,-7.70173179226007E-15));
#359=DIRECTION('',(-1.48460014209687E-14,-4.73833739527484E-5,0.999999998877408));
#360=DIRECTION('',(-1.,3.82128249687303E-14,-8.8167070409456E-15));
#361=DIRECTION('',(0.,-0.0722933289747599,-0.997383414031809));
#362=DIRECTION('',(-1.,0.,0.));
#363=DIRECTION('',(0.,0.,-1.));
#364=DIRECTION('',(-1.,2.9672554494957E-14,-2.96725544949569E-14));
#365=DIRECTION('',(2.9672554494957E-14,-1.85453465593481E-15,-1.));
#366=DIRECTION('',(0.,0.,1.));
#367=DIRECTION('',(1.,0.,0.));
#368=CARTESIAN_POINT('',(0.,0.,0.));
#369=CARTESIAN_POINT('',(15.9045264113906,1.14929094690105,0.239730631193368));
#370=CARTESIAN_POINT('',(13.5743193543216,1.14929094690105,0.239730631193373));
#371=CARTESIAN_POINT('',(13.5743193543216,1.39263883956012,0.239417345703819));
#372=CARTESIAN_POINT('',(13.5743193543216,1.14929094690105,0.239417345703943));
#373=CARTESIAN_POINT('',(13.5743193543216,1.14929094690105,0.00058265429617968));
#374=CARTESIAN_POINT('',(13.5743193543216,1.3926388395601,0.000582654296103913));
#375=CARTESIAN_POINT('',(15.8811637627004,1.27096489323057,0.120000000000006));
#376=CARTESIAN_POINT('',(15.8811637627004,1.27096489323057,0.120000000000006));
#377=CARTESIAN_POINT('',(13.4366424097718,1.27096489323057,0.120000000000006));
#378=CARTESIAN_POINT('',(13.4366424097718,1.27096489323057,0.120000000000006));
#379=CARTESIAN_POINT('',(13.0018205128911,1.14883964941335,0.242125243817223));
#380=CARTESIAN_POINT('',(16.2945972773511,1.14883964941335,0.242125243817224));
#381=CARTESIAN_POINT('',(13.0018205128911,1.27096489323057,0.239730631193356));
#382=CARTESIAN_POINT('',(15.9045264113906,1.14929094690105,0.239417345703816));
#383=CARTESIAN_POINT('',(15.9045264113906,1.14929094690105,0.00058265429617646));
#384=CARTESIAN_POINT('',(15.9045264113906,1.3926388395601,0.000582654296176495));
#385=CARTESIAN_POINT('',(15.9045264113906,1.3926388395601,0.239417345703816));
#386=CARTESIAN_POINT('',(13.5743193543216,1.14929094690105,0.239417345703821));
#387=CARTESIAN_POINT('',(13.5743193543216,1.14929094690105,0.000582654296181791));
#388=CARTESIAN_POINT('',(13.5743193543216,1.39263883956009,0.00058265429618178));
#389=CARTESIAN_POINT('',(13.5743193543216,1.39263883956009,0.239417345703821));
#390=CARTESIAN_POINT('',(16.2945972773511,1.27096489323057,0.239730631193357));
#391=CARTESIAN_POINT('',(15.9045264113906,1.27096489323058,0.23957398844859));
#392=CARTESIAN_POINT('',(15.9045264113906,1.27962061913975,0.000582654296176479));
#393=CARTESIAN_POINT('',(15.9045264113906,1.2623091673214,0.000582654296176476));
#394=CARTESIAN_POINT('',(13.5743193543216,1.27096489323058,0.239573988448593));
#395=CARTESIAN_POINT('',(13.5743193543216,1.27962061913979,0.000582654296181785));
#396=CARTESIAN_POINT('',(13.5743193543216,1.26230916732136,0.000582654296181786));
#397=CARTESIAN_POINT('',(16.2945972773511,1.27096489323057,0.000269368806641412));
#398=CARTESIAN_POINT('',(15.9045264113906,1.27096489323061,0.000582654296176478));
#399=CARTESIAN_POINT('',(13.0018205128911,1.27096489323057,0.000269368806640191));
#400=CARTESIAN_POINT('',(13.5743193543216,1.27096489323058,0.000582654296181785));
#401=CARTESIAN_POINT('',(13.0018205128911,1.27096489323057,0.119999999999998));
#402=CARTESIAN_POINT('',(13.0018205128911,1.27096489323057,0.239730631193356));
#403=CARTESIAN_POINT('',(13.0018205128911,1.27096489323057,0.000269368806640413));
#404=CARTESIAN_POINT('',(13.0018205128911,1.27096489323057,0.239730631193356));
#405=CARTESIAN_POINT('',(13.5743193543216,1.27096489323058,0.239573988448593));
#406=CARTESIAN_POINT('',(15.9045264113906,1.3926388395601,0.239417345703816));
#407=CARTESIAN_POINT('',(15.9045264113906,1.27096489323058,0.23957398844859));
#408=CARTESIAN_POINT('',(15.9045264113906,1.14929094690105,0.239417345703816));
#409=CARTESIAN_POINT('',(15.9045264113906,1.14929094690105,0.00058265429617646));
#410=CARTESIAN_POINT('',(15.9045264113906,1.14929094690105,0.00058265429617646));
#411=CARTESIAN_POINT('',(15.9045264113906,1.2623091673214,0.000582654296176476));
#412=CARTESIAN_POINT('',(15.9045264113906,1.3926388395601,0.000582654296176495));
#413=CARTESIAN_POINT('',(15.9045264113906,1.3926388395601,0.239417345703816));
#414=CARTESIAN_POINT('',(13.5743193543216,1.39263883956009,0.239417345703821));
#415=CARTESIAN_POINT('',(13.5743193543216,1.27096489323058,0.239573988448593));
#416=CARTESIAN_POINT('',(13.5743193543216,1.14929094690105,0.239417345703821));
#417=CARTESIAN_POINT('',(13.5743193543216,1.14929094690105,0.000582654296181791));
#418=CARTESIAN_POINT('',(13.5743193543216,1.14929094690105,0.000582654296181791));
#419=CARTESIAN_POINT('',(13.5743193543216,1.26230916732136,0.000582654296181786));
#420=CARTESIAN_POINT('',(13.5743193543216,1.39263883956009,0.00058265429618178));
#421=CARTESIAN_POINT('',(13.5743193543216,1.39263883956009,0.239417345703821));
#422=CARTESIAN_POINT('',(13.5743193543216,1.14929094690105,0.239417345703821));
#423=CARTESIAN_POINT('',(15.9045264113906,1.14929094690105,0.239417345703816));
#424=CARTESIAN_POINT('',(13.5743193543216,1.14929094690105,0.000582654296181791));
#425=CARTESIAN_POINT('',(15.9045264113906,1.14929094690105,0.00058265429617646));
#426=CARTESIAN_POINT('',(13.5743193543216,1.39263883956009,0.239417345703821));
#427=CARTESIAN_POINT('',(15.9045264113906,1.3926388395601,0.239417345703816));
#428=CARTESIAN_POINT('',(13.5743193543216,1.39263883956009,0.00058265429618178));
#429=CARTESIAN_POINT('',(15.9045264113906,1.3926388395601,0.000582654296176495));
#430=CARTESIAN_POINT('',(16.2945972773511,1.27096489323057,0.119999999999999));
#431=CARTESIAN_POINT('',(16.2945972773511,1.27096489323057,0.239730631193357));
#432=CARTESIAN_POINT('',(16.2945972773511,1.27096489323057,0.000269368806641412));
#433=CARTESIAN_POINT('',(16.2945972773511,1.27096489323057,0.239730631193357));
#434=CARTESIAN_POINT('',(15.9045264113906,1.27096489323058,0.23957398844859));
#435=CARTESIAN_POINT('',(15.9045264113906,1.27097056275586,0.11992178129622));
#436=CARTESIAN_POINT('',(15.9045264113906,1.27096489323058,0.23957398844859));
#437=CARTESIAN_POINT('',(15.9045264113906,1.27962061913975,0.000582654296176762));
#438=CARTESIAN_POINT('',(15.9045264113906,1.27095922370529,0.11992178129622));
#439=CARTESIAN_POINT('',(15.9045264113906,1.2623091673214,0.000582654296176474));
#440=CARTESIAN_POINT('',(15.9045264113906,1.27096489323058,0.239573988448589));
#441=CARTESIAN_POINT('',(15.9045264113906,1.27096489323058,0.23957398844859));
#442=CARTESIAN_POINT('',(15.9045264113906,1.14929094690105,0.239417345703816));
#443=CARTESIAN_POINT('',(15.9045264113906,1.27962061913975,0.000582654296176479));
#444=CARTESIAN_POINT('',(15.9045264113906,1.3926388395601,0.000582654296176495));
#445=CARTESIAN_POINT('',(15.9045264113906,1.2623091673214,0.000582654296176476));
#446=CARTESIAN_POINT('',(15.9045264113906,1.27096489323061,0.000582654296176478));
#447=CARTESIAN_POINT('',(13.5743193543216,1.27097056275586,0.119921781296223));
#448=CARTESIAN_POINT('',(13.5743193543216,1.27096489323058,0.239573988448593));
#449=CARTESIAN_POINT('',(13.5743193543216,1.27962061913979,0.000582654296181421));
#450=CARTESIAN_POINT('',(13.5743193543216,1.27095922370529,0.119921781296223));
#451=CARTESIAN_POINT('',(13.5743193543216,1.26230916732136,0.000582654296181789));
#452=CARTESIAN_POINT('',(13.5743193543216,1.27096489323058,0.239573988448593));
#453=CARTESIAN_POINT('',(13.5743193543216,1.27096489323058,0.239573988448593));
#454=CARTESIAN_POINT('',(13.5743193543216,1.14929094690105,0.239417345703821));
#455=CARTESIAN_POINT('',(13.5743193543216,1.27962061913979,0.000582654296181785));
#456=CARTESIAN_POINT('',(13.5743193543216,1.39263883956009,0.00058265429618178));
#457=CARTESIAN_POINT('',(13.5743193543216,1.26230916732136,0.000582654296181786));
#458=CARTESIAN_POINT('',(13.5743193543216,1.27096489323058,0.000582654296181785));
#459=CARTESIAN_POINT('',(16.2945972773511,1.27096489323057,0.000269368806641412));
#460=CARTESIAN_POINT('',(15.9045264113906,1.27096489323057,0.000269368806648064));
#461=CARTESIAN_POINT('',(16.2945972773511,1.27096489323057,0.119999999999999));
#462=CARTESIAN_POINT('',(16.2945972773511,1.27096489323057,0.000269368806641412));
#463=CARTESIAN_POINT('',(16.2945972773511,1.27096489323057,0.239730631193357));
#464=CARTESIAN_POINT('',(15.9045264113906,1.27096489323061,0.000582654296176478));
#465=CARTESIAN_POINT('',(15.9045264113906,1.27962061913975,0.000582654296176479));
#466=CARTESIAN_POINT('',(13.0018205128911,1.27096489323057,0.000269368806640191));
#467=CARTESIAN_POINT('',(13.5743193543216,1.27096489323057,0.000269368806650277));
#468=CARTESIAN_POINT('',(13.0018205128911,1.27096489323058,0.119999999999998));
#469=CARTESIAN_POINT('',(13.0018205128911,1.27096489323057,0.000269368806640191));
#470=CARTESIAN_POINT('',(13.0018205128911,1.27096489323057,0.239730631193356));
#471=CARTESIAN_POINT('',(13.5743193543216,1.27096489323058,0.000582654296181785));
#472=CARTESIAN_POINT('',(13.5743193543216,1.27962061913979,0.000582654296181785));
#473=CARTESIAN_POINT('',(0.,0.,0.));
ENDSEC;
END-ISO-10303-21;
